<svg id="visual" viewBox="0 0 960 100" width="960" height="100" xmlns="http://www.w3.org/2000/svg" xmlns:xlink="http://www.w3.org/1999/xlink" version="1.1"><path d="M0 42L16 46.8C32 51.7 64 61.3 96 63.8C128 66.3 160 61.7 192 57C224 52.3 256 47.7 288 47.8C320 48 352 53 384 55C416 57 448 56 480 54.8C512 53.7 544 52.3 576 47.8C608 43.3 640 35.7 672 31.7C704 27.7 736 27.3 768 31.5C800 35.7 832 44.3 864 47C896 49.7 928 46.3 944 44.7L960 43L960 0L944 0C928 0 896 0 864 0C832 0 800 0 768 0C736 0 704 0 672 0C640 0 608 0 576 0C544 0 512 0 480 0C448 0 416 0 384 0C352 0 320 0 288 0C256 0 224 0 192 0C160 0 128 0 96 0C64 0 32 0 16 0L0 0Z" fill="#006ece" stroke-linecap="round" stroke-linejoin="miter"></path></svg>