<svg id="visual" viewBox="0 0 900 100" width="900" height="100" xmlns="http://www.w3.org/2000/svg" xmlns:xlink="http://www.w3.org/1999/xlink" version="1.1"><path d="M0 29L12.5 27.3C25 25.7 50 22.3 75 23.8C100 25.3 125 31.7 150 36.7C175 41.7 200 45.3 225 43.5C250 41.7 275 34.3 300 30.2C325 26 350 25 375 26C400 27 425 30 450 34.5C475 39 500 45 525 44C550 43 575 35 600 31C625 27 650 27 675 25.5C700 24 725 21 750 20.7C775 20.3 800 22.7 825 22C850 21.3 875 17.7 887.5 15.8L900 14L900 101L887.5 101C875 101 850 101 825 101C800 101 775 101 750 101C725 101 700 101 675 101C650 101 625 101 600 101C575 101 550 101 525 101C500 101 475 101 450 101C425 101 400 101 375 101C350 101 325 101 300 101C275 101 250 101 225 101C200 101 175 101 150 101C125 101 100 101 75 101C50 101 25 101 12.5 101L0 101Z" fill="#003767"></path><path d="M0 44L12.5 47.2C25 50.3 50 56.7 75 58.8C100 61 125 59 150 56.2C175 53.3 200 49.7 225 47.2C250 44.7 275 43.3 300 41C325 38.7 350 35.3 375 39C400 42.7 425 53.3 450 57.5C475 61.7 500 59.3 525 54.3C550 49.3 575 41.7 600 39.3C625 37 650 40 675 38.8C700 37.7 725 32.3 750 33C775 33.7 800 40.3 825 43.2C850 46 875 45 887.5 44.5L900 44L900 101L887.5 101C875 101 850 101 825 101C800 101 775 101 750 101C725 101 700 101 675 101C650 101 625 101 600 101C575 101 550 101 525 101C500 101 475 101 450 101C425 101 400 101 375 101C350 101 325 101 300 101C275 101 250 101 225 101C200 101 175 101 150 101C125 101 100 101 75 101C50 101 25 101 12.5 101L0 101Z" fill="#004480"></path><path d="M0 64L12.5 63C25 62 50 60 75 61.5C100 63 125 68 150 66.3C175 64.7 200 56.3 225 51.2C250 46 275 44 300 47C325 50 350 58 375 63C400 68 425 70 450 69.7C475 69.3 500 66.7 525 62.3C550 58 575 52 600 48C625 44 650 42 675 45.8C700 49.7 725 59.3 750 61C775 62.7 800 56.3 825 55C850 53.7 875 57.3 887.5 59.2L900 61L900 101L887.5 101C875 101 850 101 825 101C800 101 775 101 750 101C725 101 700 101 675 101C650 101 625 101 600 101C575 101 550 101 525 101C500 101 475 101 450 101C425 101 400 101 375 101C350 101 325 101 300 101C275 101 250 101 225 101C200 101 175 101 150 101C125 101 100 101 75 101C50 101 25 101 12.5 101L0 101Z" fill="#005299"></path><path d="M0 68L12.5 67.2C25 66.3 50 64.7 75 64.7C100 64.7 125 66.3 150 66C175 65.7 200 63.3 225 61.3C250 59.3 275 57.7 300 59.8C325 62 350 68 375 72.2C400 76.3 425 78.7 450 79.5C475 80.3 500 79.7 525 79.8C550 80 575 81 600 81.8C625 82.7 650 83.3 675 79C700 74.7 725 65.3 750 61.7C775 58 800 60 825 64.7C850 69.3 875 76.7 887.5 80.3L900 84L900 101L887.5 101C875 101 850 101 825 101C800 101 775 101 750 101C725 101 700 101 675 101C650 101 625 101 600 101C575 101 550 101 525 101C500 101 475 101 450 101C425 101 400 101 375 101C350 101 325 101 300 101C275 101 250 101 225 101C200 101 175 101 150 101C125 101 100 101 75 101C50 101 25 101 12.5 101L0 101Z" fill="#0060b3"></path><path d="M0 74L12.5 74C25 74 50 74 75 76.3C100 78.7 125 83.3 150 83.2C175 83 200 78 225 78.5C250 79 275 85 300 88.5C325 92 350 93 375 92.7C400 92.3 425 90.7 450 88C475 85.3 500 81.7 525 82.2C550 82.7 575 87.3 600 89.3C625 91.3 650 90.7 675 89.7C700 88.7 725 87.3 750 84.2C775 81 800 76 825 73.5C850 71 875 71 887.5 71L900 71L900 101L887.5 101C875 101 850 101 825 101C800 101 775 101 750 101C725 101 700 101 675 101C650 101 625 101 600 101C575 101 550 101 525 101C500 101 475 101 450 101C425 101 400 101 375 101C350 101 325 101 300 101C275 101 250 101 225 101C200 101 175 101 150 101C125 101 100 101 75 101C50 101 25 101 12.5 101L0 101Z" fill="#006ece"></path></svg>